<?xml version="1.0" standalone="no"?>
<!DOCTYPE svg PUBLIC "-//W3C//DTD SVG 20010904//EN"
 "http://www.w3.org/TR/2001/REC-SVG-20010904/DTD/svg10.dtd">
<svg version="1.0" xmlns="http://www.w3.org/2000/svg"
 width="1280.000000pt" height="1275.000000pt" viewBox="0 0 1280.000000 1275.000000"
 preserveAspectRatio="xMidYMid meet">
<metadata>
Created by potrace 1.15, written by Peter Selinger 2001-2017
</metadata>
<g transform="translate(0.000000,1275.000000) scale(0.100000,-0.100000)"
fill="#ff5722" stroke="none">
<path d="M1280 12735 c-308 -46 -560 -186 -772 -430 -185 -211 -338 -501 -459
-868 l-49 -149 3 -5006 2 -5007 23 -97 c62 -271 169 -458 366 -645 52 -49 136
-117 188 -152 207 -140 529 -272 851 -350 l127 -31 4983 3 4982 2 100 23 c595
137 971 631 1154 1516 l21 99 0 4776 0 4776 -25 105 c-191 788 -547 1255
-1068 1400 -189 53 100 50 -5320 49 -3998 -1 -5039 -4 -5107 -14z m8855 -1376
c39 -22 60 -46 74 -88 8 -24 11 -211 11 -634 0 -586 -1 -602 -21 -643 -15 -31
-32 -48 -63 -63 -41 -20 -58 -21 -485 -21 l-443 0 -61 -32 c-94 -50 -176 -137
-225 -238 -68 -139 -76 -203 -77 -575 0 -311 1 -321 22 -361 14 -26 36 -48 60
-60 36 -18 74 -19 666 -22 l627 -3 0 -594 0 -595 -618 0 -618 0 -44 -22 c-34
-18 -51 -35 -70 -73 l-25 -49 -3 -2908 -2 -2908 -943 0 c-897 0 -944 1 -983
19 -25 12 -50 33 -65 57 l-24 39 -3 2923 -2 2922 -600 0 -600 0 0 524 c0 347
4 534 11 553 13 35 45 70 84 91 26 15 88 18 505 22 377 4 480 8 500 19 37 20
71 53 83 81 7 16 13 170 18 415 4 276 11 425 23 510 55 399 163 713 333 970
92 139 283 329 423 421 292 194 645 302 1090 333 63 5 408 8 765 7 583 -1 653
-3 680 -17z"/>
</g>
</svg>
