<svg version="1.1" xmlns="http://www.w3.org/2000/svg" fill-rule="evenodd" clip-rule="evenodd" height="1024" width="1024" viewBox="0 0 1024 1024"><path d="M957.692 424.522c-90.591 0-174.502-28.603-243.167-77.249v349.534c0 178.4-144.77 323.02-323.337 323.02-178.579 0-323.338-144.618-323.338-323.02 0-178.389 144.761-323.004 323.338-323.004 17.742 0 35.136 1.458 52.104 4.207v185.186a144.022 144.022 0 0 0-50.774-9.206c-79.69 0-144.298 64.535-144.298 144.153S312.828 842.3 392.518 842.3c79.698 0 144.298-64.54 144.298-144.158 0-0.449-0.025-0.883-0.033-1.336h0.033V4.076h180.38c0 133.423 108.273 241.59 241.827 241.59v178.837c-0.444 0-0.889 0.019-1.331 0.019z" class=""></path></svg>