<?xml version="1.0" standalone="no"?>
<!DOCTYPE svg PUBLIC "-//W3C//DTD SVG 20010904//EN"
 "http://www.w3.org/TR/2001/REC-SVG-20010904/DTD/svg10.dtd">
<svg version="1.0" xmlns="http://www.w3.org/2000/svg"
 width="1280.000000pt" height="1280.000000pt" viewBox="0 0 1280.000000 1280.000000"
 preserveAspectRatio="xMidYMid meet">
<metadata>
Created by potrace 1.15, written by Peter Selinger 2001-2017
</metadata>
<g transform="translate(0.000000,1280.000000) scale(0.100000,-0.100000)"
fill="#ff5722" stroke="none">
<path d="M7700 8983 c-19 -8 -159 -37 -310 -63 -211 -36 -283 -52 -310 -69
l-35 -22 30 5 c106 20 410 66 418 63 20 -6 -271 -76 -401 -96 -128 -19 -168
-33 -156 -52 3 -5 -4 -9 -14 -9 -11 0 -30 -9 -43 -20 l-24 -20 30 5 c18 3 11
-2 -17 -12 -30 -10 -66 -35 -99 -69 -29 -30 -51 -55 -48 -57 2 -3 99 10 214
29 116 18 228 35 250 39 21 3 37 4 34 1 -12 -13 -529 -146 -566 -146 -4 0 -93
-134 -90 -136 1 -1 31 4 67 11 172 34 184 26 23 -15 -107 -28 -108 -28 -131
-70 -12 -24 -21 -45 -18 -47 2 -3 113 12 246 32 133 20 244 35 246 33 2 -3
-110 -28 -249 -58 -138 -29 -258 -55 -264 -58 -7 -2 -13 -12 -13 -22 0 -11 -4
-22 -10 -25 -5 -3 -10 -10 -10 -15 0 -4 35 3 78 16 68 22 305 81 916 228 104
26 191 45 193 43 4 -5 -456 -149 -607 -190 -69 -19 -226 -56 -350 -83 -124
-26 -231 -52 -237 -57 -16 -12 -17 -47 -2 -47 6 0 75 9 153 21 326 47 421 72
1038 268 326 104 674 214 773 245 99 31 186 59 194 62 20 7 -26 54 -53 54 -16
0 -18 2 -7 9 11 7 9 11 -8 20 -19 10 -194 -6 -471 -44 -58 -7 -15 6 190 60
l194 52 -45 26 c-25 15 -51 27 -57 27 -7 0 -12 4 -12 8 0 13 -68 42 -100 42
-36 0 -470 -65 -573 -86 -153 -31 -82 -8 189 61 151 39 274 73 274 77 0 6 -66
24 -80 21 -3 0 -45 -3 -95 -6 l-90 -6 53 14 c30 7 56 15 58 18 11 11 -82 19
-145 13 -46 -5 -62 -4 -51 3 25 17 -29 13 -70 -6z m195 -88 c-27 -11 -843
-215 -856 -214 -75 3 752 216 846 217 11 0 16 -1 10 -3z m182 -101 c-3 -3 -12
-4 -19 -1 -8 3 -5 6 6 6 11 1 17 -2 13 -5z m8 -85 c-165 -43 -307 -79 -315
-79 -8 1 32 19 90 42 97 37 433 116 500 116 14 0 -110 -35 -275 -79z m-195 27
c0 -2 -9 -6 -20 -9 -11 -3 -18 -1 -14 4 5 9 34 13 34 5z m-132 -32 c-54 -29
-471 -133 -598 -148 -69 -9 -141 -19 -160 -22 -83 -14 -5 12 234 77 141 38
296 76 344 84 48 8 98 16 112 18 14 2 41 5 60 5 l35 1 -27 -15z m561 -38 c-8
-8 -184 -45 -316 -66 -332 -54 -507 -80 -510 -76 -2 2 72 22 164 45 174 43
683 118 662 97z m76 -41 c-22 -7 -56 -15 -75 -19 -28 -5 -31 -5 -17 4 17 11
88 28 117 28 8 0 -3 -6 -25 -13z m-294 -61 c-83 -32 -248 -77 -264 -71 -22 7
264 95 313 96 8 0 -14 -11 -49 -25z m-812 -28 c-10 -9 -328 -96 -369 -101 -67
-8 -40 1 162 55 172 45 217 55 207 46z m436 -12 c-66 -26 -508 -117 -925 -190
-84 -14 -9 9 200 62 226 57 803 159 725 128z m434 -8 c-2 -2 -260 -85 -574
-184 -562 -178 -645 -201 -898 -241 -187 -31 -194 -24 -17 14 309 66 518 126
975 276 244 80 538 157 514 135z m-1287 -51 c-90 -24 -178 -46 -195 -50 l-32
-6 28 16 c15 9 27 22 27 29 0 14 56 26 205 45 136 17 128 9 -33 -34z m907 40
c-3 -2 -47 -20 -98 -40 -72 -27 -158 -47 -375 -84 -339 -60 -753 -124 -767
-119 -6 2 67 16 163 32 329 53 654 115 858 165 212 51 226 54 219 46z m-742
-201 c-3 -3 -12 -4 -19 -1 -8 3 -5 6 6 6 11 1 17 -2 13 -5z"/>
<path d="M9450 8876 c-19 -7 -48 -20 -65 -29 l-30 -18 35 7 c49 9 100 31 100
43 0 6 -1 11 -2 11 -2 -1 -19 -7 -38 -14z"/>
<path d="M9355 8811 c-44 -10 -93 -24 -108 -32 -27 -14 -23 -15 65 -12 l93 3
-106 -20 c-58 -10 -212 -53 -342 -95 -130 -41 -245 -78 -254 -81 -10 -3 -2 4
17 16 19 11 26 18 15 16 -11 -3 -33 -8 -49 -12 -19 -4 -31 -2 -36 7 -7 10
-126 -26 -552 -169 -681 -227 -790 -258 -1342 -382 -294 -66 -338 -77 -347
-92 -10 -16 -23 -128 -16 -135 3 -3 100 13 215 36 115 22 213 41 218 40 30 -2
-247 -71 -326 -80 -120 -14 -120 -14 -120 -39 0 -24 -9 -24 112 0 123 25 175
22 64 -4 -155 -35 -176 -44 -176 -71 0 -17 6 -25 18 -25 16 -1 16 -1 0 -11
-25 -14 -22 -29 5 -30 22 0 22 0 -2 -10 -22 -9 -23 -13 -17 -56 3 -25 6 -54 6
-64 0 -15 8 -19 38 -20 l37 -1 -32 -10 c-25 -8 -33 -17 -33 -34 0 -12 5 -26
10 -29 15 -9 2 -25 -20 -25 -10 0 -123 -32 -251 -70 -211 -64 -434 -112 -513
-109 -46 1 607 169 658 169 9 0 16 5 16 10 0 6 -16 10 -36 10 -57 0 -223 20
-299 36 -95 20 -94 20 -320 -15 -110 -17 -207 -30 -215 -30 -32 1 101 28 225
44 72 10 136 21 143 24 7 4 -41 20 -107 36 -118 28 -119 28 -197 12 -168 -34
-208 -29 -56 8 39 9 72 21 72 26 0 22 -144 18 -245 -7 -16 -4 -17 -3 -5 5 8 6
39 16 68 22 28 7 52 15 52 19 0 4 -35 20 -77 35 -70 25 -83 27 -128 17 -191
-42 -1019 -202 -1027 -200 -6 2 86 29 203 60 154 41 295 70 504 103 160 25
301 50 315 54 l25 9 -29 7 c-19 5 -71 1 -138 -10 -60 -10 -111 -16 -113 -13
-3 3 42 13 101 23 97 17 104 20 82 32 -17 9 -48 11 -113 7 -49 -3 -98 -8 -109
-11 -10 -3 -16 -1 -13 4 3 5 31 16 62 23 64 15 77 27 40 36 -16 4 -79 -8 -173
-34 -127 -35 -292 -63 -292 -50 0 3 92 29 205 58 l205 53 -60 34 c-54 29 -69
33 -143 34 l-82 1 54 17 c53 16 53 17 29 28 -21 10 -39 7 -104 -14 -53 -17
-109 -27 -169 -30 -118 -5 -97 8 79 52 113 28 127 34 109 43 -12 7 -28 10 -35
7 -7 -2 -89 -11 -183 -20 -93 -8 -183 -18 -200 -20 -20 -3 -25 -2 -15 4 15 9
162 35 260 46 85 9 111 16 104 26 -3 5 -17 9 -32 10 -15 0 -21 3 -14 6 16 6
-76 73 -101 73 -10 0 -62 -11 -115 -24 -101 -25 -231 -40 -216 -26 13 13 150
57 222 71 34 7 62 16 62 20 0 4 -13 17 -29 28 -27 20 -31 20 -72 5 -148 -52
-542 -156 -633 -165 -56 -6 -102 -12 -102 -13 -1 0 1 -16 3 -34 6 -39 0 -39
133 1 47 14 108 28 135 31 l50 6 -51 -25 c-28 -14 -88 -32 -135 -40 -133 -25
-132 -24 -109 -107 l10 -36 56 15 c72 18 80 11 13 -13 -54 -20 -66 -33 -52
-57 7 -12 32 -4 143 43 l135 57 139 6 c77 4 136 4 132 0 -3 -4 -122 -42 -262
-84 -141 -43 -259 -80 -262 -83 -24 -25 51 -7 331 77 251 76 334 97 377 96
l55 -1 -50 -14 c-27 -8 -197 -56 -377 -107 -181 -50 -328 -94 -328 -97 1 -33
26 -34 300 -5 74 8 28 -10 -118 -46 -75 -18 -138 -34 -140 -35 -2 -1 7 -17 18
-37 19 -31 24 -34 48 -27 498 146 581 168 657 175 33 3 78 8 100 10 72 9 17
-11 -237 -84 -136 -39 -302 -80 -370 -91 -189 -32 -180 -28 -153 -64 14 -19
17 -18 112 7 98 26 392 81 398 75 2 -2 -104 -32 -235 -68 -220 -59 -238 -65
-229 -82 9 -17 20 -18 97 -14 l87 5 -60 -15 c-84 -20 -90 -23 -79 -34 6 -6 71
5 174 30 91 22 172 39 180 39 28 -1 -56 -26 -193 -59 -75 -18 -137 -35 -137
-39 0 -4 11 -18 25 -31 l24 -23 418 101 c372 90 551 124 640 121 26 0 -136
-45 -532 -148 -82 -21 -217 -51 -300 -65 -226 -40 -206 -31 -159 -76 21 -22
45 -39 52 -40 6 0 12 -4 12 -9 0 -5 11 -16 25 -25 25 -16 34 -15 239 43 125
35 222 58 235 54 15 -4 -56 -25 -201 -61 -122 -30 -225 -56 -227 -58 -1 -1 0
-7 3 -12 3 -6 62 4 143 25 157 39 610 143 626 143 27 0 -18 -13 -283 -84 -299
-79 -454 -108 -532 -99 -30 3 -63 0 -94 -11 -26 -9 -55 -16 -63 -15 -9 0 7 8
34 17 43 14 46 17 24 20 -15 2 -91 -15 -170 -36 -166 -45 -235 -59 -205 -41
11 7 87 29 170 49 111 28 146 40 131 46 -44 18 -130 9 -238 -25 l-108 -35 7
-40 c3 -23 8 -42 9 -44 2 -2 27 4 56 12 29 9 62 16 73 15 12 0 -8 -10 -44 -21
-65 -20 -89 -33 -78 -43 3 -3 80 16 171 44 146 44 321 81 332 70 2 -3 -105
-33 -238 -68 -133 -36 -246 -68 -251 -73 -19 -16 5 -21 52 -10 691 165 1145
262 1159 248 2 -2 -247 -65 -554 -141 -307 -75 -577 -142 -600 -148 -24 -6
-43 -17 -43 -25 0 -8 7 -11 18 -8 60 19 1238 306 1244 304 5 -2 -193 -54 -439
-117 -246 -62 -492 -126 -545 -141 -53 -16 -125 -34 -160 -40 -117 -20 -117
-20 -99 -49 7 -11 20 -10 77 7 38 11 112 28 164 37 52 9 297 54 544 101 247
46 451 82 454 80 2 -3 -15 -10 -37 -16 -23 -6 -85 -24 -139 -41 -258 -79 -790
-199 -924 -208 -59 -4 -110 -10 -114 -13 -3 -3 1 -20 10 -36 l15 -30 58 14
c64 15 384 57 390 51 2 -2 -88 -28 -199 -56 -112 -29 -207 -57 -212 -61 -7 -7
8 -38 60 -118 1 -2 66 15 145 37 136 38 368 85 376 77 10 -9 -236 -86 -359
-112 -76 -16 -138 -31 -138 -34 0 -3 15 -22 33 -43 l32 -39 90 16 c50 9 101
15 115 15 22 -1 -15 -8 -169 -35 -30 -5 -32 -7 -19 -20 13 -13 27 -13 124 5
175 32 172 31 150 16 -10 -8 -37 -17 -59 -20 -75 -12 -167 -37 -167 -46 0 -18
142 -130 158 -125 95 28 468 93 478 84 2 -3 -104 -24 -236 -48 -132 -25 -240
-47 -240 -50 1 -10 135 -90 152 -90 10 0 97 23 195 50 97 28 181 49 186 47 5
-1 -72 -27 -172 -56 -99 -30 -181 -57 -181 -60 0 -3 22 -15 48 -27 35 -15 56
-18 82 -12 193 42 1008 174 1031 166 5 -2 -192 -52 -437 -113 -245 -60 -448
-113 -450 -117 -3 -4 6 -8 20 -8 38 0 40 -17 4 -29 -77 -24 -378 -85 -386 -77
-2 2 43 15 100 29 l103 25 -68 1 c-57 1 -275 -25 -285 -35 -2 -1 6 -23 17 -49
19 -43 23 -46 48 -41 112 23 406 76 409 73 7 -7 -263 -76 -343 -87 -46 -7 -83
-15 -83 -19 0 -3 9 -20 19 -38 l20 -31 48 15 c42 13 333 46 340 39 2 -2 -59
-17 -134 -35 -232 -55 -233 -55 -225 -67 5 -7 111 14 337 68 182 43 337 77
345 75 13 -3 -509 -135 -600 -152 -75 -14 -74 -10 -13 -91 38 -51 61 -73 72
-70 79 23 1070 200 1077 193 11 -11 -351 -99 -481 -117 -188 -27 -531 -78
-568 -86 -41 -8 -21 -27 22 -20 144 23 448 66 461 65 51 -3 -379 -79 -446 -79
-16 0 -24 -5 -21 -12 4 -14 24 -15 107 -5 l55 7 -50 -16 c-86 -26 -83 -23 -57
-44 13 -11 31 -17 40 -14 12 4 14 3 4 -3 -10 -8 -10 -12 3 -23 14 -12 32 -8
123 23 83 29 155 44 317 67 216 31 242 33 233 25 -11 -11 -431 -137 -513 -154
l-90 -18 33 -20 33 -21 76 25 c42 13 83 22 92 21 9 -2 -21 -14 -66 -27 -46
-13 -80 -28 -77 -33 9 -14 142 -78 163 -78 11 0 21 -4 23 -9 5 -15 170 -63
236 -68 34 -3 65 -10 68 -14 8 -14 134 -10 194 6 66 18 531 98 536 92 6 -5
-331 -74 -461 -94 -101 -15 -115 -20 -165 -57 -30 -23 -57 -43 -60 -46 -3 -3
-21 -16 -40 -28 -19 -12 -30 -22 -24 -22 7 0 89 18 183 40 94 23 251 52 349
66 97 13 261 38 365 55 103 17 192 29 197 27 14 -4 -564 -164 -681 -187 -103
-21 -427 -75 -519 -87 -48 -6 -90 -22 -140 -54 -41 -26 -265 -116 -396 -159
-330 -109 -705 -153 -1041 -123 -45 4 -80 5 -77 1 11 -18 170 -103 190 -101
12 1 98 15 189 32 92 17 169 29 171 27 8 -7 -112 -37 -208 -52 -51 -8 -104
-18 -118 -21 -24 -6 -24 -6 13 -25 37 -20 38 -20 102 0 66 21 354 65 363 56 3
-3 2 -5 -2 -5 -4 0 -77 -16 -162 -35 -84 -19 -174 -35 -199 -35 -25 0 -45 -4
-45 -9 0 -5 25 -19 55 -31 50 -20 59 -21 122 -10 87 16 128 9 53 -9 -86 -20
-88 -21 -67 -32 9 -6 79 -35 155 -65 147 -60 130 -57 282 -39 19 3 6 -4 -30
-14 l-65 -18 83 -26 c46 -15 90 -27 99 -27 9 0 143 27 297 59 410 87 521 104
1006 156 251 27 256 27 249 21 -12 -11 -917 -201 -1129 -236 -134 -23 -246
-42 -248 -44 -12 -13 61 -13 133 -1 99 17 126 13 41 -6 -31 -7 -56 -15 -56
-19 0 -3 60 -16 134 -27 l133 -21 169 34 c93 18 176 33 184 33 8 0 -34 -17
-95 -38 -87 -30 -105 -39 -85 -44 14 -3 135 -6 270 -6 l245 -1 500 95 c448 85
676 137 662 151 -4 4 -598 -105 -911 -167 -74 -14 -101 -16 -107 -8 -9 14 -99
8 -368 -27 -106 -14 -195 -23 -197 -21 -3 2 64 25 148 50 173 52 200 56 948
142 584 67 602 70 660 99 25 13 78 38 118 57 80 36 102 55 56 45 -16 -3 -81
-10 -144 -16 -63 -5 -187 -17 -275 -25 -88 -8 -187 -17 -220 -20 l-60 -5 75
20 c409 111 504 133 649 151 86 10 172 19 191 19 19 0 53 11 75 24 l40 25 -95
-5 c-87 -4 -92 -3 -65 10 17 7 68 17 115 21 86 7 125 20 151 51 13 15 12 16
-11 10 -19 -6 -21 -5 -10 3 8 6 24 11 36 11 17 0 144 84 144 96 0 2 -10 2 -22
-1 -40 -10 -383 -63 -386 -60 -2 2 1 12 7 23 12 22 18 23 270 52 102 11 180
25 190 33 9 7 36 30 60 51 l44 38 -54 -7 c-47 -6 -269 -47 -409 -75 -50 -10
-60 -6 -39 15 9 9 103 27 269 51 179 25 260 41 273 52 18 16 18 17 0 23 -15 6
-13 8 8 8 27 1 94 61 68 61 -8 1 0 7 17 14 29 13 54 36 39 36 -4 0 -53 -13
-109 -30 -103 -30 -237 -55 -258 -48 -15 5 301 95 364 103 31 5 54 15 70 32
l23 26 -30 -7 c-90 -19 -241 -46 -259 -45 -12 0 9 9 46 19 37 11 109 38 160
60 51 22 103 40 115 40 17 0 98 68 90 76 -4 4 -218 -26 -411 -56 -104 -17
-199 -30 -210 -29 -62 2 46 22 324 60 287 39 306 43 328 66 13 14 21 27 19 29
-2 2 -138 -14 -303 -36 -164 -22 -306 -39 -314 -39 -39 2 178 54 375 89 236
43 261 46 267 29 2 -5 13 3 25 19 l21 29 -101 -3 -102 -4 60 20 c33 11 88 25
123 31 63 11 63 11 107 77 25 36 43 67 41 69 -2 2 -43 -1 -92 -6 -49 -6 -181
-17 -294 -26 -113 -9 -217 -18 -232 -21 -21 -4 -28 -2 -28 10 0 29 -3 29 509
102 176 25 195 30 208 51 9 13 14 26 11 28 -2 3 -150 -16 -328 -41 -177 -25
-330 -44 -338 -42 -12 2 -11 8 9 30 21 23 57 34 299 92 151 36 311 71 356 77
72 10 82 14 97 40 19 34 22 34 -98 14 -49 -8 -191 -28 -315 -45 -124 -16 -237
-32 -252 -35 -42 -7 -34 12 10 25 20 5 114 21 207 35 216 32 476 82 489 95 18
18 1 19 -68 4 -38 -8 -71 -12 -73 -10 -3 2 11 7 29 11 52 11 146 56 152 72 4
10 2 13 -6 10 -107 -45 -169 -63 -373 -110 -297 -68 -385 -83 -396 -65 -12 18
-2 21 420 118 252 57 376 90 379 99 4 11 -4 13 -39 7 -226 -37 -291 -43 -219
-20 50 15 125 29 213 39 58 7 59 7 79 52 11 24 18 46 16 48 -2 2 -31 -2 -63
-10 -101 -23 -485 -63 -485 -50 0 2 64 25 143 50 95 30 188 51 282 65 77 11
143 20 147 20 8 0 35 59 45 98 4 17 2 23 -5 18 -16 -10 -194 -48 -199 -42 -2
2 47 21 110 42 l114 37 16 49 c14 44 14 48 -1 49 -12 0 -10 3 6 9 26 11 30 34
5 26 -14 -4 -209 -49 -305 -70 -26 -6 -22 0 17 24 20 12 92 34 171 50 75 16
141 34 145 42 16 25 10 40 -13 35 -13 -4 -43 -9 -68 -12 -34 -5 -41 -4 -28 4
9 6 40 14 69 18 53 8 82 33 37 33 -21 0 -20 2 10 20 17 11 32 27 32 36 0 12
-3 14 -13 6 -12 -11 -306 -66 -313 -59 -5 5 287 97 308 97 8 0 20 6 25 13 11
13 35 128 29 134 -2 2 -115 -17 -250 -42 -208 -38 -266 -45 -364 -44 l-117 1
150 38 c82 21 249 53 370 71 189 28 246 42 231 57 -2 1 -34 -2 -71 -8 -37 -6
-69 -9 -72 -7 -2 3 30 12 71 22 55 13 76 22 79 36 4 16 -1 19 -31 19 -71 0
-169 -22 -387 -85 -196 -57 -392 -101 -402 -91 -7 7 307 104 467 144 85 22
201 45 256 52 102 12 102 12 108 42 11 57 11 57 -51 42 -32 -8 -116 -33 -188
-54 -110 -34 -382 -86 -392 -76 -5 5 347 94 402 101 28 4 55 11 62 17 6 5 49
19 95 31 56 15 84 27 86 38 2 14 -21 12 -175 -17 -267 -51 -296 -41 -45 15
194 43 240 60 227 82 -3 3 -62 -4 -132 -17 -184 -33 -194 -28 -18 10 l150 31
7 70 c4 38 6 71 4 72 -1 1 -29 -4 -61 -12 -73 -18 -512 -77 -539 -73 -10 2
104 29 255 61 382 82 349 71 349 113 0 29 -3 34 -17 30 -35 -11 -189 -44 -228
-50 -65 -9 -19 10 85 34 52 12 108 25 124 29 16 4 32 13 34 20 5 15 -5 14
-183 -30 -95 -23 -129 -27 -165 -21 -42 8 -32 11 153 47 171 33 197 41 197 57
0 14 -5 17 -22 13 -179 -42 -578 -119 -584 -112 -10 10 421 128 509 138 68 9
97 16 97 26 0 7 -6 13 -12 13 -9 0 -8 3 2 10 38 24 -10 20 -107 -8 -103 -30
-312 -67 -334 -60 -6 2 94 28 222 57 212 48 299 75 287 87 -3 2 -132 -25 -288
-61 -155 -36 -285 -64 -287 -61 -3 3 15 10 38 16 24 6 161 44 304 84 143 41
274 77 291 80 17 4 41 17 53 30 l22 23 -68 -18 c-58 -16 -447 -80 -470 -78 -4
0 49 20 120 44 116 40 141 45 285 55 107 8 162 16 171 26 13 12 5 13 -52 7
-37 -3 -67 -3 -67 0 0 3 35 11 78 18 l77 12 77 76 c43 42 78 78 78 82 0 3
-226 -37 -502 -87 -277 -51 -504 -91 -506 -89 -5 5 183 62 368 111 109 30 255
58 430 85 237 36 294 49 279 63 -2 2 -58 -4 -124 -14 -66 -10 -121 -17 -123
-16 -1 2 53 18 120 35 68 18 134 36 147 40 24 7 89 77 80 85 -2 2 -402 -79
-889 -180 -487 -101 -892 -183 -900 -182 -8 2 19 12 60 22 41 10 255 70 475
133 351 101 416 116 528 128 134 13 194 34 102 36 l-50 1 80 22 c63 18 90 32
128 66 26 23 46 44 45 46 -2 2 -31 -3 -63 -11 -97 -23 -98 -15 -1 10 48 13 92
27 96 32 4 4 30 37 59 72 37 47 47 67 38 73 -8 5 -7 8 5 8 10 0 22 9 28 20 6
11 7 20 1 20 -5 0 -75 -16 -156 -35 -272 -65 -1046 -228 -1052 -221 -3 2 17 9
44 15 26 6 242 58 478 116 237 58 495 120 575 137 134 28 171 40 159 52 -8 8
-221 -37 -512 -108 -147 -36 -271 -66 -275 -65 -11 1 87 35 338 116 146 47
282 84 358 97 l123 21 19 43 c22 50 26 49 -95 23z m-728 -232 c-23 -13 -127
-49 -141 -48 -12 0 132 56 149 57 6 1 2 -3 -8 -9z m52 -173 c-12 -11 -950
-268 -956 -262 -4 4 119 44 432 141 183 57 546 141 524 121z m-552 -52 c-3 -3
-12 -4 -19 -1 -8 3 -5 6 6 6 11 1 17 -2 13 -5z m146 -1 c-7 -2 -19 -2 -25 0
-7 3 -2 5 12 5 14 0 19 -2 13 -5z m-46 -9 c-3 -3 -12 -4 -19 -1 -8 3 -5 6 6 6
11 1 17 -2 13 -5z m312 -14 c-50 -29 -509 -157 -624 -174 -61 -8 -21 4 287 88
152 42 287 80 300 85 13 6 30 10 38 10 12 0 12 -1 -1 -9z m-540 -64 c-2 -3
-99 -35 -214 -72 -209 -66 -211 -66 -369 -75 -87 -5 -160 -8 -162 -6 -2 1 92
22 209 46 117 24 280 58 362 76 151 33 182 39 174 31z m1508 -12 c-3 -3 -12
-4 -19 -1 -8 3 -5 6 6 6 11 1 17 -2 13 -5z m-42 -10 c-46 -19 -356 -99 -362
-93 -4 4 -19 9 -33 11 -14 2 63 22 170 45 172 36 256 50 225 37z m-1065 -73
c-21 -12 -888 -259 -930 -265 -108 -16 -115 -16 -100 -7 21 13 232 75 391 115
74 18 206 55 294 81 184 54 385 99 345 76z m419 -56 c-18 -17 -250 -77 -374
-95 -287 -42 -269 -36 180 59 196 42 201 43 194 36z m91 -15 c-62 -19 -126
-33 -118 -25 9 9 131 43 153 43 11 0 -5 -8 -35 -18z m-990 1 c-23 -13 -431
-133 -436 -128 -2 2 87 32 198 66 112 35 208 65 213 66 6 2 17 4 25 4 13 0 13
-1 0 -8z m-475 -10 c-10 -18 -331 -77 -515 -95 -54 -5 -54 -5 -24 9 18 8 82
20 143 26 83 9 111 16 107 25 -6 15 28 21 179 33 55 5 104 9 108 10 5 0 6 -3
2 -8z m1942 -47 c-3 -3 -12 -4 -19 -1 -8 3 -5 6 6 6 11 1 17 -2 13 -5z m-1948
-28 c-2 -2 -139 -40 -304 -85 -366 -100 -491 -119 -200 -31 217 66 527 137
504 116z m1141 -17 c-36 -10 -69 -18 -75 -18 -17 2 99 38 120 38 11 0 -9 -9
-45 -20z m-4575 -19 c-16 -4 -39 -8 -50 -8 l-20 -1 20 9 c11 5 34 8 50 8 l30
0 -30 -8z m4993 4 c-9 -8 -190 -44 -218 -43 -14 1 25 12 85 24 120 25 141 28
133 19z m-649 -8 c-2 -2 -120 -32 -262 -65 -228 -54 -283 -63 -478 -81 -121
-11 -232 -20 -247 -20 -47 1 398 89 528 105 69 8 193 26 275 39 155 25 191 29
184 22z m-4249 -21 c-19 -7 -44 -13 -55 -13 -11 0 -2 5 20 13 53 17 80 17 35
0z m4347 9 c-3 -3 -12 -4 -19 -1 -8 3 -5 6 6 6 11 1 17 -2 13 -5z m-1107 -8
c0 -9 -247 -85 -295 -92 -83 -11 -47 4 121 50 168 47 174 48 174 42z m1067 -2
c-3 -3 -12 -4 -19 -1 -8 3 -5 6 6 6 11 1 17 -2 13 -5z m-40 -10 c-3 -3 -12 -4
-19 -1 -8 3 -5 6 6 6 11 1 17 -2 13 -5z m-162 -40 c-71 -18 -139 -33 -150 -33
-24 1 232 67 260 67 11 0 -38 -15 -110 -34z m725 5 c-63 -16 -151 -31 -195
-34 l-80 -5 100 25 c110 27 201 42 255 43 21 0 -10 -12 -80 -29z m-4590 -27
c-66 -22 -94 -25 -240 -28 -207 -4 -178 9 80 35 240 24 249 24 160 -7z m2950
-26 c0 -6 -221 -58 -227 -53 -3 4 96 37 152 50 27 6 75 8 75 3z m-2570 -34 c0
-13 -196 -58 -466 -107 -138 -25 -255 -45 -260 -44 -5 0 54 18 131 39 77 22
199 57 270 79 113 35 143 40 228 41 53 0 97 -4 97 -8z m2239 3 c-16 -15 -270
-74 -340 -79 l-84 -6 130 36 c72 19 153 39 180 44 59 9 120 12 114 5z m1580 1
c-7 -6 -310 -68 -314 -64 -4 3 144 41 240 61 26 6 79 8 74 3z m-396 -13 c-7
-2 -19 -2 -25 0 -7 3 -2 5 12 5 14 0 19 -2 13 -5z m502 -19 c-78 -29 -201 -61
-255 -67 -48 -5 -51 -5 -25 5 46 18 278 77 300 77 11 0 2 -7 -20 -15z m-950
-14 c-38 -10 -81 -18 -95 -18 -14 0 7 8 45 18 39 10 81 18 95 18 14 0 -6 -8
-45 -18z m-380 -12 c-257 -48 -437 -79 -441 -76 -2 3 54 19 124 37 125 32 232
48 322 48 l45 1 -50 -10z m832 6 c-3 -3 -12 -4 -19 -1 -8 3 -5 6 6 6 11 1 17
-2 13 -5z m-262 -65 c-126 -32 -255 -65 -285 -74 -110 -31 -92 -12 25 26 119
39 417 107 465 107 14 0 -78 -26 -205 -59z m815 11 c-96 -27 -175 -48 -176
-47 -29 42 -31 41 134 68 229 39 238 34 42 -21z m-493 34 c-3 -3 -12 -4 -19
-1 -8 3 -5 6 6 6 11 1 17 -2 13 -5z m-982 -49 c-154 -39 -307 -67 -515 -94
-189 -25 -9 19 345 84 295 54 285 52 315 53 14 0 -51 -19 -145 -43z m-2676 31
c-7 -7 -233 -66 -249 -65 -8 0 39 16 105 34 114 32 154 40 144 31z m2216 -22
c-63 -17 -81 -17 -35 1 19 7 46 13 60 13 15 0 5 -5 -25 -14z m1722 -29 c3 -9
3 -18 0 -21 -2 -3 -100 -32 -217 -64 -203 -56 -346 -87 -356 -78 -2 3 64 27
148 54 84 27 202 65 263 86 124 41 153 45 162 23z m-4337 -25 c-30 -11 -77
-19 -105 -18 -46 0 -43 2 40 18 115 23 134 23 65 0z m3249 15 c-15 -14 -462
-115 -532 -120 l-82 -5 100 30 c55 16 116 30 135 31 19 0 105 15 190 34 153
32 198 39 189 30z m811 -24 c-432 -142 -497 -160 -648 -181 -84 -12 -158 -20
-164 -18 -27 9 621 192 752 213 137 21 155 17 60 -14z m-3351 15 c-6 -6 -331
-67 -335 -63 -6 6 156 49 216 57 65 9 125 12 119 6z m2771 -103 c-144 -48
-512 -149 -585 -161 -106 -18 -149 -23 -144 -18 3 3 129 44 280 91 179 56 314
92 389 104 166 27 178 23 60 -16z m-915 -4 c-63 -20 -148 -34 -250 -43 -78 -6
-52 1 125 34 172 33 207 35 125 9z m1765 -15 c-58 -18 -109 -32 -113 -31 -19
6 59 50 101 57 113 19 118 8 12 -26z m-130 -5 c-29 -19 -134 -71 -173 -85 -92
-33 -827 -152 -807 -132 3 3 138 42 300 86 339 93 736 170 680 131z m-4503 -5
c-3 -3 -12 -4 -19 -1 -8 3 -5 6 6 6 11 1 17 -2 13 -5z m1123 -4 c-34 -11 -60
-11 -35 0 11 5 29 8 40 8 16 0 15 -2 -5 -8z m169 6 c-7 -7 -162 -44 -209 -50
-25 -3 5 8 65 24 102 26 154 36 144 26z m1885 -6 c-12 -5 -43 -11 -70 -14
l-49 -5 40 14 c45 15 117 20 79 5z m-3217 -6 c-3 -3 -12 -4 -19 -1 -8 3 -5 6
6 6 11 1 17 -2 13 -5z m1522 -8 c-13 -14 -218 -55 -294 -60 -119 -7 -75 6 122
38 159 26 179 28 172 22z m1890 0 c-7 -6 -492 -155 -529 -162 -76 -15 -13 9
231 85 216 68 316 94 298 77z m-609 -32 c-58 -13 -109 -22 -115 -20 -18 5 140
44 180 44 29 0 11 -7 -65 -24z m-2013 0 c-3 -3 -12 -4 -19 -1 -8 3 -5 6 6 6
11 1 17 -2 13 -5z m-147 -35 c-198 -50 -332 -77 -410 -82 -41 -3 -69 -3 -61 0
20 8 543 111 566 111 11 0 -32 -13 -95 -29z m1123 21 c-24 -10 -163 -30 -196
-29 -57 2 113 35 193 37 24 1 24 0 3 -8z m1216 -14 c-16 -14 -500 -157 -564
-166 -44 -6 -93 -13 -110 -17 -16 -3 -27 -2 -24 1 12 13 502 157 579 171 76
13 127 18 119 11z m-1559 -16 c-20 -13 -141 -33 -165 -28 -19 4 116 35 160 37
16 1 17 -1 5 -9z m3630 -10 c-14 -4 -34 -8 -45 -8 -16 0 -15 2 5 8 14 4 34 8
45 8 16 0 15 -2 -5 -8z m-1285 -21 c-33 -10 -64 -18 -70 -18 -15 1 97 38 115
37 8 0 -12 -8 -45 -19z m-192 4 c-7 -2 -21 -2 -30 0 -10 3 -4 5 12 5 17 0 24
-2 18 -5z m1404 1 c-3 -3 -12 -4 -19 -1 -8 3 -5 6 6 6 11 1 17 -2 13 -5z
m-1522 -20 c-38 -8 -77 -13 -85 -11 -19 4 84 25 125 25 17 0 -1 -7 -40 -14z
m-2285 -12 c0 -9 -277 -78 -345 -87 -61 -8 -31 2 147 50 170 45 198 50 198 37z
m1099 -6 c-30 -31 -1167 -282 -1186 -262 -2 2 31 11 74 21 129 28 245 59 518
138 221 64 281 77 400 90 156 16 200 19 194 13z m1166 -37 c-110 -36 -305 -70
-395 -68 -77 1 406 107 490 107 14 0 -29 -17 -95 -39z m1084 37 c-6 -6 -291
-57 -295 -53 -4 4 101 30 186 46 48 9 116 14 109 7z m-3884 -16 c-11 -5 -29
-8 -40 -8 -16 0 -15 2 5 8 34 11 60 11 35 0z m4024 6 c-8 -8 -436 -116 -455
-115 -23 1 180 60 321 94 95 22 143 30 134 21z m-4254 -62 c-164 -42 -227 -54
-175 -33 34 14 300 77 325 77 11 0 -56 -20 -150 -44z m2644 41 c-8 -7 -231
-62 -279 -69 -39 -5 -35 -2 30 20 95 32 265 66 249 49z m-1290 -19 c-26 -23
-981 -264 -1009 -254 -10 3 829 231 911 247 46 9 105 14 98 7z m2036 -30 c-88
-23 -389 -93 -425 -100 -62 -12 -17 10 70 34 255 69 300 79 350 79 l55 -1 -50
-12z m225 5 c-21 -12 -170 -44 -176 -38 -5 4 146 44 176 46 13 0 13 -1 0 -8z
m-1311 -5 c-5 -4 -233 -71 -274 -81 -65 -15 -10 9 107 45 104 33 183 50 167
36z m2408 -2 c-3 -3 -12 -4 -19 -1 -8 3 -5 6 6 6 11 1 17 -2 13 -5z m-3780
-10 c-3 -3 -12 -4 -19 -1 -8 3 -5 6 6 6 11 1 17 -2 13 -5z m2202 2 c-18 -16
-345 -99 -408 -103 -42 -3 -74 -3 -71 0 9 10 305 89 360 97 63 8 125 12 119 6z
m-2349 -31 c-115 -23 -225 -39 -203 -29 31 14 234 52 273 52 34 0 16 -6 -70
-23z m2900 -1 c-47 -13 -107 -26 -135 -29 l-50 -5 35 16 c35 16 162 42 210 42
14 0 -13 -11 -60 -24z m-1200 5 c-35 -15 -232 -61 -237 -56 -5 6 216 65 242
66 17 0 16 -2 -5 -10z m1890 -45 c-166 -59 -416 -114 -693 -153 -278 -39 -250
-30 273 88 633 144 650 147 420 65z m-2471 31 c-3 -2 -84 -29 -180 -59 -150
-46 -504 -124 -515 -113 -8 8 488 149 571 161 102 16 130 18 124 11z m716 -36
c-97 -32 -145 -41 -249 -50 -70 -6 -130 -9 -132 -7 -8 9 238 70 331 83 173 23
183 17 50 -26z m1413 24 c-10 -2 -28 -2 -40 0 -13 2 -5 4 17 4 22 1 32 -1 23
-4z m-3898 -69 c-140 -35 -262 -62 -270 -61 -8 1 75 26 185 54 231 60 281 71
315 71 14 0 -90 -29 -230 -64z m3813 59 c-7 -2 -21 -2 -30 0 -10 3 -4 5 12 5
17 0 24 -2 18 -5z m-85 -10 c-10 -2 -28 -2 -40 0 -13 2 -5 4 17 4 22 1 32 -1
23 -4z m-1723 -9 c-25 -10 -189 -53 -193 -50 -3 3 104 37 153 49 25 6 53 7 40
1z m-666 -18 c-2 -2 -131 -42 -285 -89 -265 -80 -311 -91 -794 -182 -282 -52
-518 -94 -524 -92 -6 2 12 9 39 16 28 6 308 77 623 157 424 107 616 151 735
169 164 23 214 28 206 21z m1641 -15 c-26 -15 -320 -78 -320 -68 0 3 60 19
133 35 169 39 169 40 187 41 13 0 13 -1 0 -8z m1367 3 c-3 -3 -12 -4 -19 -1
-8 3 -5 6 6 6 11 1 17 -2 13 -5z m-2639 -19 c-6 -6 -318 -104 -428 -134 -149
-42 -101 -19 85 40 246 78 358 108 343 94z m1785 -2 c-7 -2 -21 -2 -30 0 -10
3 -4 5 12 5 17 0 24 -2 18 -5z m206 3 c-7 -8 -649 -153 -724 -165 -125 -19
-266 -34 -271 -28 -3 2 12 8 33 11 21 4 132 32 246 62 150 40 254 61 370 75
89 10 196 25 237 33 80 15 116 19 109 12z m-1239 -21 c-132 -22 -175 -27 -168
-20 15 15 108 33 173 33 l70 0 -75 -13z m977 9 c-3 -3 -12 -4 -19 -1 -8 3 -5
6 6 6 11 1 17 -2 13 -5z m-1249 -19 c-16 -16 -251 -68 -426 -95 -111 -16 -208
-30 -214 -29 -41 2 357 99 449 109 59 6 117 13 128 14 38 6 68 6 63 1z m2041
1 c-7 -7 -472 -107 -476 -103 -8 9 230 69 337 87 128 20 145 22 139 16z
m-4522 -32 c-3 -3 -12 -4 -19 -1 -8 3 -5 6 6 6 11 1 17 -2 13 -5z m4500 -10
c-3 -3 -12 -4 -19 -1 -8 3 -5 6 6 6 11 1 17 -2 13 -5z m-1929 -11 c-10 -2 -26
-2 -35 0 -10 3 -2 5 17 5 19 0 27 -2 18 -5z m-1711 -9 c-3 -3 -12 -4 -19 -1
-8 3 -5 6 6 6 11 1 17 -2 13 -5z m1646 -1 c-7 -2 -21 -2 -30 0 -10 3 -4 5 12
5 17 0 24 -2 18 -5z m-1686 -9 c-3 -3 -12 -4 -19 -1 -8 3 -5 6 6 6 11 1 17 -2
13 -5z m1626 -1 c-7 -2 -21 -2 -30 0 -10 3 -4 5 12 5 17 0 24 -2 18 -5z
m-1034 -7 c-14 -14 -666 -172 -674 -164 -3 2 75 28 173 56 194 57 521 127 501
108z m2576 -2 c-5 -2 -116 -33 -245 -69 -152 -43 -321 -81 -480 -109 -331 -59
-382 -68 -386 -63 -14 14 740 187 1046 240 33 6 78 7 65 1z m-988 -20 c-3 -3
-12 -4 -19 -1 -8 3 -5 6 6 6 11 1 17 -2 13 -5z m1452 2 c-2 -2 -85 -24 -184
-49 -157 -39 -330 -68 -314 -53 8 9 441 105 473 105 16 1 27 -1 25 -3z m-1590
-10 c-14 -14 -191 -72 -299 -97 -107 -26 -381 -71 -414 -68 -17 1 572 148 634
158 69 11 85 12 79 7z m-880 -31 c-7 -6 -502 -86 -507 -81 -6 7 134 35 298 60
155 24 218 30 209 21z m1377 -31 c-82 -19 -151 -32 -153 -30 -7 6 239 65 272
65 17 -1 -37 -16 -119 -35z m-2069 20 c-3 -3 -12 -4 -19 -1 -8 3 -5 6 6 6 11
1 17 -2 13 -5z m1222 2 c-8 -8 -371 -97 -382 -93 -16 5 191 66 278 81 88 16
110 18 104 12z m-384 -21 c-21 -9 -307 -56 -311 -52 -5 5 77 23 191 42 76 12
141 18 120 10z m2580 -36 c-38 -10 -74 -18 -80 -18 -19 2 100 37 125 37 14 0
-6 -8 -45 -19z m-1738 5 c-3 -3 -12 -4 -19 -1 -8 3 -5 6 6 6 11 1 17 -2 13 -5z
m-262 -55 c-126 -27 -234 -48 -240 -48 -5 0 10 9 35 20 55 25 141 45 263 63
190 28 164 13 -58 -35z m482 45 c-3 -3 -12 -4 -19 -1 -8 3 -5 6 6 6 11 1 17
-2 13 -5z m-2252 -35 c-44 -10 -84 -17 -90 -15 -13 4 113 34 145 34 14 0 -11
-8 -55 -19z m862 15 c-3 -3 -12 -4 -19 -1 -8 3 -5 6 6 6 11 1 17 -2 13 -5z
m2318 -4 c-16 -4 -41 -8 -55 -8 -22 0 -22 1 5 8 17 4 41 8 55 8 22 0 22 -1 -5
-8z m-1275 -30 c-163 -45 -427 -110 -450 -110 -14 0 -31 4 -38 9 -8 5 47 20
145 41 87 18 205 43 263 55 126 28 170 31 80 5z m-1395 -5 c-204 -47 -398 -85
-450 -90 -57 -5 -55 -4 47 25 58 17 173 41 255 54 165 26 241 32 148 11z m352
9 c-3 -3 -12 -4 -19 -1 -8 3 -5 6 6 6 11 1 17 -2 13 -5z m2170 0 c-3 -3 -12
-4 -19 -1 -8 3 -5 6 6 6 11 1 17 -2 13 -5z m-2220 -10 c-3 -3 -12 -4 -19 -1
-8 3 -5 6 6 6 11 1 17 -2 13 -5z m1200 0 c-3 -3 -12 -4 -19 -1 -8 3 -5 6 6 6
11 1 17 -2 13 -5z m-1244 -11 c-7 -2 -21 -2 -30 0 -10 3 -4 5 12 5 17 0 24 -2
18 -5z m1192 -3 c-11 -5 -27 -9 -35 -9 -9 0 -8 4 5 9 11 5 27 9 35 9 9 0 8 -4
-5 -9z m-1025 -14 c-20 -8 -56 -16 -80 -19 -38 -5 -35 -3 20 12 75 22 112 26
60 7z m-1230 -1 c0 -14 -304 -84 -316 -72 -2 2 65 20 149 39 176 41 167 39
167 33z m2130 -21 c-91 -29 -219 -58 -226 -51 -5 5 261 75 286 75 8 0 -19 -10
-60 -24z m870 10 c-111 -35 -271 -64 -346 -63 -70 1 -75 2 -43 11 42 11 384
65 414 66 11 0 0 -6 -25 -14z m-3633 0 c-3 -3 -12 -4 -19 -1 -8 3 -5 6 6 6 11
1 17 -2 13 -5z m2341 -9 c-27 -15 -168 -48 -175 -42 -3 4 173 55 192 56 6 0
-2 -6 -17 -14z m-273 0 c-31 -12 -487 -116 -491 -112 -11 11 224 80 328 97
104 16 187 24 163 15z m1804 1 c-11 -11 -212 -56 -246 -55 -25 1 6 10 92 29
132 28 162 33 154 26z m-2280 -10 c-10 -11 -438 -97 -502 -101 l-72 -5 84 25
c47 13 144 34 215 46 72 11 151 24 176 29 50 9 106 12 99 6z m3154 -13 c-7 -2
-19 -2 -25 0 -7 3 -2 5 12 5 14 0 19 -2 13 -5z m-718 -23 c-11 -5 -36 -8 -55
-8 l-35 1 35 7 c19 4 44 8 55 8 l20 1 -20 -9z m-1715 -14 c24 -14 24 -14 -20
-26 -25 -6 -61 -15 -80 -21 -19 -5 -80 -8 -135 -8 l-100 1 150 33 c83 18 152
33 155 34 3 0 16 -6 30 -13z m-710 -10 c0 -14 -135 -47 -182 -44 -52 3 -51 3
52 24 117 24 130 26 130 20z m-791 -20 c-2 -2 -49 -16 -104 -31 -55 -15 -165
-46 -245 -69 -134 -40 -229 -62 -218 -50 5 5 430 128 496 143 40 10 78 13 71
7z m2231 -26 c-181 -36 -201 -36 -80 0 61 18 118 28 160 28 61 0 56 -2 -80
-28z m375 15 c-102 -17 -146 -17 -80 0 28 7 75 13 105 13 54 0 54 -1 -25 -13z
m255 1 c-39 -14 -146 -29 -136 -19 7 7 121 31 151 31 12 0 6 -5 -15 -12z m199
10 c-2 -2 -26 -6 -54 -10 -34 -4 -45 -3 -35 4 14 9 99 15 89 6z m376 -81
c-388 -117 -592 -157 -1125 -219 -69 -8 -126 -14 -127 -12 -1 1 28 18 65 38
83 45 158 63 797 184 388 73 509 93 580 93 l90 0 -280 -84z m543 80 c-7 -7
-250 -56 -255 -51 -6 6 190 54 226 55 19 1 32 -1 29 -4z m-2961 -11 c-3 -3
-12 -4 -19 -1 -8 3 -5 6 6 6 11 1 17 -2 13 -5z m-910 -10 c-3 -3 -12 -4 -19
-1 -8 3 -5 6 6 6 11 1 17 -2 13 -5z m3163 0 c-45 -12 -494 -94 -497 -91 -7 8
288 82 351 88 78 7 170 9 146 3z m-3541 -8 c-7 -6 -572 -164 -609 -170 -63
-10 -9 6 290 90 269 76 331 91 319 80z m2738 -2 c-3 -3 -12 -4 -19 -1 -8 3 -5
6 6 6 11 1 17 -2 13 -5z m-2503 -29 c-33 -15 -214 -49 -221 -42 -8 8 172 55
212 55 l40 0 -31 -13z m566 -12 c-44 -19 -145 -41 -476 -103 -338 -63 -332
-62 -314 -51 13 7 134 40 570 155 30 8 100 14 155 14 98 0 99 0 65 -15z m299
13 c-7 -7 -241 -57 -246 -53 -6 6 194 55 226 56 13 1 22 -1 20 -3z m361 -7
c-45 -11 -381 -42 -387 -35 -2 2 22 10 54 16 32 7 74 16 93 20 19 4 89 8 155
8 87 0 110 -2 85 -9z m1350 -49 c-80 -27 -278 -81 -440 -119 -162 -38 -353
-84 -424 -101 -71 -17 -130 -29 -132 -27 -11 11 241 118 311 132 44 9 213 48
375 85 162 38 304 71 315 73 11 3 47 5 80 6 l60 1 -145 -50z m-202 25 c-7 -8
-439 -107 -444 -102 -3 2 26 18 64 35 74 33 142 48 267 61 109 11 119 12 113
6z m1307 -21 c-142 -50 -381 -101 -560 -118 l-60 -6 70 21 c74 23 566 127 600
127 11 0 -11 -11 -50 -24z m-2485 -19 c-125 -38 -260 -68 -267 -61 -5 4 168
61 252 82 28 7 68 12 90 12 32 1 16 -6 -75 -33z m2753 4 c-11 -11 -227 -43
-246 -36 -6 2 42 13 108 24 149 26 152 26 138 12z m-3068 -50 c-100 -33 -170
-47 -420 -83 -165 -24 -327 -46 -360 -49 l-60 -6 45 15 c135 44 344 88 585
123 149 21 284 39 300 39 17 1 -22 -16 -90 -39z m-202 24 c-7 -2 -19 -2 -25 0
-7 3 -2 5 12 5 14 0 19 -2 13 -5z m-1098 -24 c-38 -10 -74 -18 -80 -18 -20 2
101 38 125 37 14 0 -6 -8 -45 -19z m2290 -11 c-32 -17 -100 -39 -150 -49 -126
-25 -424 -71 -437 -67 -6 2 9 14 33 26 29 15 132 39 309 71 146 27 274 49 285
49 11 1 -7 -13 -40 -30z m-2040 6 c-5 -2 -73 -22 -150 -45 -122 -36 -533 -114
-544 -103 -9 9 67 27 341 83 161 33 302 61 313 64 25 6 53 7 40 1z m4025 1 c0
-14 -66 -31 -308 -80 -218 -44 -619 -136 -707 -162 -11 -3 -17 -3 -14 1 3 3
138 49 300 102 289 94 297 96 484 119 203 24 245 28 245 20z m-3700 -24 c-33
-19 -423 -86 -458 -79 -10 2 66 18 168 36 102 18 205 37 230 41 25 5 52 9 60
10 13 0 13 -1 0 -8z m2775 -152 l-330 -109 -215 -30 c-118 -16 -225 -32 -237
-35 -13 -3 -23 -3 -23 0 0 9 75 37 165 61 50 13 108 33 130 43 78 38 333 102
555 141 124 21 239 39 255 38 17 0 -118 -49 -300 -109z m-2865 80 c-36 -10
-69 -18 -75 -18 -17 2 99 38 120 38 11 0 -9 -9 -45 -20z m2180 17 c0 -3 -24
-18 -52 -34 -41 -23 -71 -31 -133 -37 -44 -3 -91 -9 -105 -12 -14 -3 -22 -2
-18 2 6 6 211 63 306 84 1 1 2 -1 2 -3z m-1381 -10 c-12 -13 -261 -85 -309
-90 l-55 -5 60 20 c129 44 320 91 304 75z m831 0 c0 -5 -105 -55 -201 -97 -54
-23 -98 -32 -240 -47 -96 -11 -175 -18 -177 -17 -2 2 28 22 66 44 67 40 74 42
298 77 126 19 234 36 239 39 15 5 15 5 15 1z m-2027 -23 c-7 -2 -19 -2 -25 0
-7 3 -2 5 12 5 14 0 19 -2 13 -5z m1577 2 c0 -13 -62 -33 -120 -39 l-65 -6 80
24 c82 25 105 29 105 21z m2370 -24 c-32 -17 -276 -58 -286 -48 -4 4 278 64
306 66 8 0 -1 -8 -20 -18z m-2611 -5 c-8 -8 -204 -54 -254 -59 l-50 -6 45 14
c86 28 272 64 259 51z m1241 -32 c-63 -13 -116 -21 -118 -19 -9 8 44 26 103
34 119 17 128 8 15 -15z m240 7 c-104 -21 -185 -33 -178 -26 9 9 191 43 228
43 22 0 2 -7 -50 -17z m1418 13 c-3 -3 -82 -19 -174 -35 -93 -16 -180 -31
-192 -34 -14 -4 -21 -2 -18 4 7 10 157 46 251 60 72 10 140 13 133 5z m-3429
-9 c-9 -9 -203 -65 -213 -62 -5 2 37 17 95 35 105 31 126 36 118 27z m611 -50
c-30 -19 -66 -39 -80 -44 -25 -10 -460 -55 -466 -48 -10 10 312 90 427 106
183 26 182 26 119 -14z m1000 30 c0 -12 -63 -34 -140 -48 -105 -20 -440 -60
-446 -54 -11 11 294 79 406 91 145 16 180 18 180 11z m-2773 -11 c-3 -3 -12
-4 -19 -1 -8 3 -5 6 6 6 11 1 17 -2 13 -5z m-64 -11 c-7 -2 -19 -2 -25 0 -7 3
-2 5 12 5 14 0 19 -2 13 -5z m726 3 c-7 -7 -389 -68 -401 -64 -9 3 195 42 322
61 36 6 84 8 79 3z m-504 -15 c-30 -12 -131 -25 -122 -15 7 8 78 20 122 22
l20 1 -20 -8z m3810 -27 c-77 -19 -171 -40 -210 -48 -91 -19 -570 -79 -592
-74 -28 5 373 85 547 109 85 12 193 27 240 34 152 23 158 14 15 -21z m-3190
-5 c-60 -19 -254 -53 -261 -46 -6 5 265 65 296 65 14 0 -2 -8 -35 -19z m2174
17 c-6 -7 -323 -85 -327 -82 -1 2 19 16 45 32 36 21 71 31 138 40 100 13 151
16 144 10z m-1650 -20 c-14 -13 -204 -59 -254 -61 -33 -1 -73 -6 -90 -10 -16
-4 -28 -5 -24 -2 8 10 190 56 255 66 66 10 120 13 113 7z m1337 -15 c-3 -5
-25 -20 -49 -34 -36 -21 -66 -27 -212 -41 -93 -9 -192 -19 -220 -22 -27 -3
-47 -2 -43 1 7 7 178 42 393 80 72 13 131 24 133 24 2 1 1 -3 -2 -8z m1623 4
c-9 -9 -331 -85 -382 -90 -60 -6 -50 -2 88 40 98 30 309 66 294 50z m111 -10
c0 -7 -140 -48 -146 -42 -3 3 21 13 53 22 32 9 63 18 68 20 15 5 25 6 25 0z
m-4121 -29 c-7 -7 -231 -47 -236 -43 -5 6 69 23 147 36 64 10 95 13 89 7z
m1369 -1 c-15 -15 -341 -65 -418 -64 -86 1 -174 15 -120 18 14 1 124 12 245
25 226 24 302 30 293 21z m2221 -20 c-11 -10 -279 -65 -315 -64 -52 1 -40 5
122 39 128 27 204 37 193 25z m-2186 -12 c-7 -2 -19 -2 -25 0 -7 3 -2 5 12 5
14 0 19 -2 13 -5z m392 -8 c-87 -19 -151 -28 -143 -20 11 12 118 33 163 33 37
0 35 -1 -20 -13z m565 -21 c-83 -26 -99 -29 -84 -14 11 11 111 39 139 38 11 0
-14 -11 -55 -24z m-1090 6 c-8 -5 -26 -9 -40 -9 l-25 1 25 8 c14 4 32 8 40 9
13 1 13 0 0 -9z m-434 -30 c33 -4 54 -8 47 -9 -6 0 -82 -14 -170 -30 -277 -52
-396 -72 -400 -68 -2 2 99 33 224 69 138 40 230 61 234 55 4 -5 33 -13 65 -17z
m-218 15 c-3 -3 -122 -39 -264 -79 -243 -70 -346 -95 -334 -84 11 11 467 151
514 158 67 10 90 11 84 5z m1551 1 c-2 -1 -65 -19 -139 -39 -119 -32 -170 -40
-425 -62 -159 -14 -297 -25 -305 -25 -37 1 116 54 220 76 86 18 170 27 334 34
121 5 221 12 224 15 3 3 26 5 50 5 25 0 43 -2 41 -4z m921 -21 c-30 -8 -98
-19 -150 -24 -215 -24 -412 -42 -417 -38 -8 9 505 74 582 75 39 0 39 0 -15
-13z m-909 -15 c-15 -13 -37 -20 -65 -19 l-41 1 60 18 c33 10 62 18 65 18 3 1
-6 -8 -19 -18z m-836 -6 c-59 -22 -197 -56 -202 -50 -3 2 21 18 53 35 48 24
71 30 124 30 l65 0 -40 -15z m2370 1 c-22 -8 -53 -13 -70 -13 -24 0 -19 3 20
13 65 17 101 17 50 0z m-2565 -10 c0 -9 -142 -75 -160 -75 -8 0 -104 -20 -214
-45 -213 -48 -435 -90 -442 -83 -2 2 166 46 374 97 207 51 388 96 402 101 31
10 40 11 40 5z m2157 -11 c-3 -3 -12 -4 -19 -1 -8 3 -5 6 6 6 11 1 17 -2 13
-5z m-64 -11 c-7 -2 -21 -2 -30 0 -10 3 -4 5 12 5 17 0 24 -2 18 -5z m503 -24
c-49 -16 -91 -27 -94 -25 -5 5 147 54 168 54 8 0 -25 -13 -74 -29z m-3919 5
c-3 -3 -12 -4 -19 -1 -8 3 -5 6 6 6 11 1 17 -2 13 -5z m2947 -4 c-11 -4 -144
-24 -295 -44 -151 -20 -285 -39 -297 -42 -13 -3 -21 -1 -18 5 14 22 131 40
546 84 19 2 46 4 60 5 23 1 23 0 4 -8z m-2987 -6 c-3 -3 -12 -4 -19 -1 -8 3
-5 6 6 6 11 1 17 -2 13 -5z m3698 -19 c-43 -15 -93 -24 -130 -24 -71 1 -64 5
53 29 126 27 165 24 77 -5z m-3738 9 c-3 -3 -12 -4 -19 -1 -8 3 -5 6 6 6 11 1
17 -2 13 -5z m2482 -8 c-2 -2 -26 -6 -54 -9 -34 -4 -42 -3 -25 3 25 8 87 13
79 6z m581 -12 c-36 -7 -76 -13 -90 -12 -34 1 87 26 125 26 17 0 1 -6 -35 -14z
m168 -11 c-10 -2 -26 -2 -35 0 -10 3 -2 5 17 5 19 0 27 -2 18 -5z m-1386 -14
c-33 -13 -302 -48 -419 -54 -130 -7 -81 8 97 29 74 9 167 20 205 25 39 5 86 9
105 9 31 1 33 0 12 -9z m1321 4 c-7 -2 -19 -2 -25 0 -7 3 -2 5 12 5 14 0 19
-2 13 -5z m184 -9 c-3 -3 -12 -4 -19 -1 -8 3 -5 6 6 6 11 1 17 -2 13 -5z m768
0 c-38 -15 -615 -137 -621 -131 -5 5 123 63 159 72 33 9 416 62 447 63 14 0
21 -1 15 -4z m-2175 -30 c-48 -15 -300 -57 -306 -51 -2 2 40 14 93 26 172 38
303 53 213 25z m710 6 c-121 -29 -397 -59 -340 -37 22 8 299 45 340 45 l35 0
-35 -8z m833 -16 c-41 -13 -167 -36 -295 -54 -123 -17 -239 -33 -258 -36 -26
-4 -31 -3 -19 5 23 15 400 90 499 100 141 14 153 12 73 -15z m-606 10 c-3 -3
-12 -4 -19 -1 -8 3 -5 6 6 6 11 1 17 -2 13 -5z m-717 -8 c0 -12 -306 -63 -316
-53 -4 4 132 32 246 50 37 6 70 8 70 3z m1875 -32 c-96 -25 -275 -57 -282 -50
-4 4 82 25 247 60 107 23 132 16 35 -10z m-1770 -4 c-3 -5 -12 -10 -18 -10 -7
0 -6 4 3 10 19 12 23 12 15 0z m-1376 -4 c-8 -8 -164 -45 -214 -50 -69 -8 -48
0 75 28 100 23 148 31 139 22z m1811 -12 c-25 -8 -164 -37 -310 -65 -146 -27
-274 -52 -285 -56 -11 -3 -17 -2 -14 1 4 4 71 25 150 48 175 49 598 116 459
72z m-580 -3 c-18 -11 -125 -31 -154 -30 -28 1 -11 7 65 24 77 16 111 19 89 6z
m-806 -11 c-30 -12 -235 -52 -240 -47 -15 14 150 54 231 55 26 1 27 0 9 -8z
m2756 -10 c-34 -11 -60 -11 -35 0 11 5 29 8 40 8 16 0 15 -2 -5 -8z m-2510
-14 c0 -2 -39 -9 -87 -16 -49 -6 -97 -14 -108 -17 -11 -3 -16 -2 -12 3 13 13
207 42 207 30z m1450 -42 c-141 -36 -197 -46 -290 -49 -113 -5 -114 -5 -75 11
39 15 450 82 510 82 17 0 -49 -19 -145 -44z m-1990 32 c0 -19 -331 -99 -346
-83 -7 6 280 86 314 86 17 1 32 -1 32 -3z m700 -17 c-36 -10 -99 -21 -140 -24
l-75 -5 60 16 c79 21 142 32 185 32 29 0 24 -3 -30 -19z m439 -3 c-2 -2 -46
-16 -98 -30 -83 -24 -96 -26 -109 -12 -13 13 -11 15 19 20 19 3 57 10 84 15
53 9 111 13 104 7z m1650 -6 c-24 -14 -170 -52 -176 -46 -3 2 15 10 38 16 24
6 64 18 89 25 53 16 71 18 49 5z m-1926 -7 c-7 -2 -19 -2 -25 0 -7 3 -2 5 12
5 14 0 19 -2 13 -5z m1737 -10 c-40 -13 -209 -30 -185 -18 15 7 176 33 205 33
18 0 12 -4 -20 -15z m-3003 -9 c-3 -3 -12 -4 -19 -1 -8 3 -5 6 6 6 11 1 17 -2
13 -5z m-38 -8 c-8 -8 -270 -78 -275 -74 -2 3 53 21 123 41 121 33 162 42 152
33z m383 -21 c-51 -16 -140 -30 -131 -21 8 8 126 34 154 34 11 0 1 -6 -23 -13z
m638 -11 c-58 -13 -112 -22 -120 -21 -23 5 150 46 190 45 21 0 -7 -9 -70 -24z
m305 10 c-49 -37 -197 -68 -783 -164 -461 -76 -420 -57 123 55 143 30 334 70
425 89 91 19 185 34 210 35 42 0 44 -1 25 -15z m600 -4 c-11 -5 -31 -8 -45 -8
l-25 0 25 8 c14 4 34 8 45 8 l20 1 -20 -9z m-1140 -5 c-21 -8 -239 -45 -242
-41 -8 8 163 44 207 44 25 0 41 -1 35 -3z m2030 -11 c-5 -2 -95 -26 -199 -54
-175 -47 -373 -86 -383 -77 -3 4 231 71 417 121 47 12 193 22 165 10z m144 2
c-6 -6 -246 -66 -261 -65 -17 1 221 67 246 68 11 1 17 -1 15 -3z m-461 -11
c-17 -17 -560 -166 -599 -164 -8 0 60 20 151 44 91 25 224 62 295 84 123 38
165 47 153 36z m607 -5 c4 -6 -6 -10 -23 -10 -16 0 -45 -2 -63 -5 -33 -4 -33
-4 6 9 49 18 72 19 80 6z m-3025 -16 c-44 -14 -371 -57 -378 -50 -8 9 333 64
393 64 26 0 24 -2 -15 -14z m1715 7 c-23 -20 -290 -93 -403 -109 -67 -10 -119
-15 -115 -12 5 4 77 28 161 54 125 39 213 57 357 75 6 1 6 -2 0 -8z m150 -21
c-105 -26 -258 -49 -230 -35 6 2 53 18 105 34 70 22 115 30 170 30 l75 0 -120
-29z m-1516 15 c-8 -7 -372 -95 -376 -91 -6 6 19 13 192 57 139 35 195 46 184
34z m1839 -10 c-14 -14 -653 -178 -670 -173 -5 2 104 35 244 73 319 87 442
116 426 100z m-1629 -9 c-18 -18 -1102 -256 -1114 -244 -2 2 137 39 308 82
326 82 827 182 806 162z m2461 -26 c-8 -5 -28 -9 -45 -9 -29 1 -29 1 -5 9 14
4 34 8 45 9 16 1 17 -1 5 -9z m-191 -4 c-6 -6 -298 -64 -361 -72 -32 -3 -58
-4 -58 -1 0 8 166 45 270 61 86 14 157 19 149 12z m-1724 -37 c-80 -21 -98
-23 -70 -7 25 15 72 26 110 26 19 0 4 -7 -40 -19z m654 7 c-10 -9 -593 -157
-678 -171 -215 -37 -91 -3 564 154 77 19 123 26 114 17z m-858 -47 c-36 -16
-90 -36 -120 -43 -66 -17 -341 -59 -347 -53 -5 5 352 103 421 116 28 5 64 9
80 9 25 1 19 -4 -34 -29z m2214 16 c-38 -14 -85 -22 -85 -15 0 5 12 11 28 13
35 5 70 6 57 2z m-482 -22 c-7 -2 -19 -2 -25 0 -7 3 -2 5 12 5 14 0 19 -2 13
-5z m357 -2 c0 -10 -288 -67 -296 -59 -2 3 62 19 143 36 82 16 149 30 151 31
1 1 2 -3 2 -8z m-407 -8 c-7 -2 -21 -2 -30 0 -10 3 -4 5 12 5 17 0 24 -2 18
-5z m-56 -9 c-3 -3 -12 -4 -19 -1 -8 3 -5 6 6 6 11 1 17 -2 13 -5z m443 -32
c0 -30 -30 -43 -135 -57 -60 -9 -222 -31 -360 -51 -468 -65 -609 -84 -613 -79
-9 8 88 27 449 85 206 33 430 71 499 84 144 27 160 29 160 18z m-1879 -13
c-80 -32 -578 -143 -561 -126 3 4 39 20 80 38 53 22 127 40 265 64 104 18 201
33 215 33 l25 1 -24 -10z m1054 -4 c-27 -7 -59 -13 -70 -13 -11 0 3 6 30 13
28 7 59 13 70 13 11 0 -2 -6 -30 -13z m-511 -20 c-44 -14 -301 -62 -374 -70
-69 -7 -22 5 185 45 197 39 260 47 189 25z m821 9 c-19 -8 -308 -64 -312 -61
-6 6 118 37 203 52 78 13 128 17 109 9z m-1906 -69 c-3 -2 -37 -18 -77 -35
-54 -23 -113 -36 -243 -55 -94 -14 -176 -25 -182 -24 -22 1 278 79 378 98 107
20 131 24 124 16z m1351 -22 c-19 -8 -71 -24 -115 -34 -88 -20 -426 -72 -432
-66 -7 8 523 114 572 115 6 0 -6 -7 -25 -15z m1010 8 c0 -23 -43 -35 -192 -51
-90 -10 -237 -31 -328 -45 -91 -15 -262 -42 -380 -61 -244 -39 -493 -74 -499
-69 -14 14 110 42 314 71 270 39 781 115 955 143 63 10 118 19 123 20 4 0 7
-3 7 -8z m-1703 -7 c-3 -3 -12 -4 -19 -1 -8 3 -5 6 6 6 11 1 17 -2 13 -5z
m-322 -10 c-26 -10 -535 -142 -575 -149 -87 -14 -33 4 145 49 99 25 225 59
280 75 55 17 114 30 130 30 17 0 26 -2 20 -5z m230 -60 c-74 -22 -533 -90
-543 -80 -5 6 6 8 318 61 284 49 340 54 225 19z m1940 10 c-49 -8 -101 -13
-115 -11 -30 3 108 24 165 25 22 0 0 -7 -50 -14z m-808 0 c-3 -3 -12 -4 -19
-1 -8 3 -5 6 6 6 11 1 17 -2 13 -5z m-2299 -9 c-13 -14 -182 -64 -247 -74 -84
-13 -103 -9 -39 8 24 6 93 25 153 41 107 28 144 35 133 25z m2230 -2 c-10 -2
-26 -2 -35 0 -10 3 -2 5 17 5 19 0 27 -2 18 -5z m-63 -8 c-5 -2 -93 -16 -195
-30 -102 -14 -194 -28 -204 -30 -13 -3 -16 -1 -8 7 5 5 86 20 179 33 152 21
254 30 228 20z m335 -40 c-250 -42 -400 -62 -390 -52 3 3 122 23 265 46 143
22 271 42 285 44 14 2 41 4 60 4 19 1 -80 -19 -220 -42z m-1133 -21 c-3 -3
-12 -4 -19 -1 -8 3 -5 6 6 6 11 1 17 -2 13 -5z m288 -4 c-3 -5 -18 -9 -33 -9
l-27 1 30 8 c17 4 31 8 33 9 2 0 0 -3 -3 -9z m1053 3 c-10 -2 -26 -2 -35 0
-10 3 -2 5 17 5 19 0 27 -2 18 -5z m-1928 -39 c-47 -13 -119 -30 -161 -37 -76
-14 -76 -13 -76 8 0 20 8 23 121 37 66 8 139 15 161 16 34 0 26 -4 -45 -24z
m617 0 c-3 -3 -12 -4 -19 -1 -8 3 -5 6 6 6 11 1 17 -2 13 -5z m1638 -3 c-13
-12 -164 -45 -172 -37 -11 11 19 35 50 39 65 8 131 7 122 -2z m-670 -6 c-25
-9 -427 -56 -432 -51 -4 3 2 6 13 7 10 0 89 11 174 24 131 20 279 32 245 20z
m880 -4 c-35 -14 -111 -24 -100 -13 13 13 41 20 85 20 27 1 31 -1 15 -7z
m-1750 -21 c-37 -17 -177 -39 -165 -27 10 11 145 46 175 45 30 0 30 0 -10 -18z
m1038 13 c-7 -2 -21 -2 -30 0 -10 3 -4 5 12 5 17 0 24 -2 18 -5z m307 -2 c0
-19 -30 -31 -135 -56 -61 -14 -150 -39 -200 -55 -60 -20 -269 -61 -635 -125
-299 -52 -548 -94 -552 -93 -5 2 211 52 479 111 268 59 603 134 743 167 262
60 300 66 300 51z m-435 -17 c-195 -33 -1257 -185 -1261 -181 -6 6 235 55 351
72 55 8 224 30 375 50 151 19 336 43 410 54 154 22 245 25 125 5z m-1985 -10
c-58 -19 -236 -54 -264 -53 -53 2 215 66 279 67 26 0 24 -2 -15 -14z m780 -19
c-83 -22 -1072 -207 -1078 -201 -1 2 32 17 75 34 131 52 356 110 511 132 195
27 476 58 532 58 41 0 38 -2 -40 -23z m598 20 c-7 -7 -420 -77 -425 -72 -10
10 73 29 224 52 162 24 210 29 201 20z m611 -29 c-2 -2 -128 -31 -279 -64
-210 -46 -286 -59 -320 -55 -38 5 2 15 260 64 294 55 348 64 339 55z m-1124
-46 c-3 -5 -23 -14 -43 -19 -42 -11 -361 -61 -383 -60 -40 1 57 24 231 54 107
18 196 33 198 34 2 1 0 -3 -3 -9z m1423 -67 c-10 -2 -26 -2 -35 0 -10 3 -2 5
17 5 19 0 27 -2 18 -5z m-65 -10 c-7 -2 -21 -2 -30 0 -10 3 -4 5 12 5 17 0 24
-2 18 -5z m-2636 -19 c-3 -3 -12 -4 -19 -1 -8 3 -5 6 6 6 11 1 17 -2 13 -5z
m660 -4 c-15 -5 -58 -11 -95 -14 l-67 -5 70 13 c39 7 81 14 95 14 24 0 24 0
-3 -8z m2030 -6 c-7 -8 -220 -33 -267 -32 -19 0 33 10 115 22 146 22 165 23
152 10z m434 -14 c-24 -11 -74 -29 -110 -40 -87 -26 -381 -88 -381 -81 0 4 11
23 25 43 23 35 28 36 138 57 121 23 241 38 322 39 l50 2 -44 -20z m-1446 5
c-25 -10 -297 -66 -301 -62 -4 4 180 53 226 60 33 6 88 6 75 2z m-388 -11 c-3
-3 -12 -4 -19 -1 -8 3 -5 6 6 6 11 1 17 -2 13 -5z m-64 -11 c-7 -2 -19 -2 -25
0 -7 3 -2 5 12 5 14 0 19 -2 13 -5z m1144 -9 c-3 -3 -12 -4 -19 -1 -8 3 -5 6
6 6 11 1 17 -2 13 -5z m264 -41 c-35 -63 -52 -72 -171 -93 -63 -11 -275 -38
-470 -60 -195 -22 -398 -47 -450 -54 -85 -13 -126 -14 -89 -2 30 10 333 69
724 141 226 41 417 77 425 79 35 9 41 6 31 -11z m-334 -19 c-3 -3 -12 -4 -19
-1 -8 3 -5 6 6 6 11 1 17 -2 13 -5z m-54 -11 c-7 -2 -19 -2 -25 0 -7 3 -2 5
12 5 14 0 19 -2 13 -5z m-78 -14 c-118 -25 -478 -89 -482 -86 -12 12 419 95
492 95 26 0 24 -1 -10 -9z m-411 -19 c-33 -13 -305 -71 -317 -67 -8 2 154 42
288 70 35 8 51 6 29 -3z m976 -51 c-150 -43 -180 -48 -160 -24 7 8 22 15 34
15 12 0 27 5 33 11 11 11 147 37 198 37 17 0 -31 -17 -105 -39z m-1371 -3 c-2
-2 -116 -32 -254 -66 -195 -48 -278 -63 -378 -71 -71 -6 -134 -8 -140 -6 -11
3 121 30 508 102 222 42 273 50 264 41z m1176 -28 c-5 -12 -54 -20 -218 -37
-117 -12 -230 -23 -252 -26 -29 -3 -23 0 20 11 58 14 447 74 453 69 1 -1 0 -9
-3 -17z m443 -35 c-10 -2 -26 -2 -35 0 -10 3 -2 5 17 5 19 0 27 -2 18 -5z
m-75 -10 c-7 -2 -21 -2 -30 0 -10 3 -4 5 12 5 17 0 24 -2 18 -5z m-2240 -10
c-7 -2 -19 -2 -25 0 -7 3 -2 5 12 5 14 0 19 -2 13 -5z m2175 0 c-10 -2 -26 -2
-35 0 -10 3 -2 5 17 5 19 0 27 -2 18 -5z m-440 -8 c-10 -10 -817 -110 -824
-102 -12 12 177 42 446 72 293 32 388 40 378 30z m359 -1 c-3 -3 -12 -4 -19
-1 -8 3 -5 6 6 6 11 1 17 -2 13 -5z m-2242 -99 c-106 -20 -402 -57 -422 -53
-10 2 59 16 152 31 210 33 217 34 285 34 l55 1 -70 -13z m974 11 c-14 -14
-197 -51 -334 -67 -320 -38 -240 -12 140 45 164 25 201 29 194 22z m952 -14
c-8 -15 -39 -24 -138 -41 -229 -41 -498 -71 -416 -48 62 18 314 71 412 87 155
24 154 24 142 2z m-1003 -79 c-10 -2 -26 -2 -35 0 -10 3 -2 5 17 5 19 0 27 -2
18 -5z m-63 -8 c-21 -8 -307 -46 -312 -42 -6 7 37 16 153 31 94 13 181 19 159
11z m1015 -15 c-13 -25 4 -21 -365 -75 -284 -42 -562 -72 -572 -61 -2 2 29 10
69 16 601 102 819 138 846 139 30 1 32 -1 22 -19z m-1655 -30 c-111 -19 -149
-20 -79 -1 70 17 78 19 134 19 46 0 38 -3 -55 -18z m1926 9 c-31 -12 -263 -50
-269 -44 -3 3 -3 8 0 11 8 8 214 42 258 42 32 1 33 0 11 -9z m-2938 -16 c-7
-2 -19 -2 -25 0 -7 3 -2 5 12 5 14 0 19 -2 13 -5z m825 1 c-24 -23 -644 -163
-838 -188 -65 -8 -48 -3 185 60 223 60 673 148 653 128z m342 -3 c-8 -5 -48
-16 -87 -25 -87 -19 -474 -78 -480 -72 -6 6 299 63 537 99 42 7 46 7 30 -2z
m1460 -30 c-8 -5 -55 -11 -105 -14 l-90 -6 70 13 c85 16 147 19 125 7z m-2540
-32 c-88 -17 -675 -108 -678 -104 -17 17 568 114 683 113 l40 0 -45 -9z m2390
-76 c-74 -24 -384 -67 -439 -61 -51 6 402 86 489 86 14 0 -9 -11 -50 -25z
m150 7 c0 -5 -12 -10 -27 -10 -22 0 -25 2 -13 10 20 13 40 13 40 0z m-2595 -5
c-53 -21 -353 -96 -400 -100 -51 -4 -38 1 85 36 175 49 255 67 295 67 17 0 26
-1 20 -3z m923 -2 c-10 -2 -26 -2 -35 0 -10 3 -2 5 17 5 19 0 27 -2 18 -5z
m512 -18 c-85 -13 -156 -22 -158 -20 -3 3 112 30 168 38 14 3 52 4 85 5 45 0
22 -6 -95 -23z m-391 -9 c-13 -13 -1047 -171 -1057 -162 -16 17 574 122 843
151 125 13 221 18 214 11z m560 -50 c-7 -8 -418 -64 -504 -70 -139 -9 -31 12
220 43 231 29 292 35 284 27z m500 -20 c-7 -7 -492 -124 -559 -135 -36 -6
-164 -20 -285 -31 -121 -11 -245 -22 -275 -25 -30 -3 -50 -3 -45 0 6 2 145 33
310 69 234 50 353 70 540 91 132 14 245 28 250 30 14 5 69 6 64 1z m-1052 -12
c-3 -3 -12 -4 -19 -1 -8 3 -5 6 6 6 11 1 17 -2 13 -5z m-1684 -11 c-7 -2 -19
-2 -25 0 -7 3 -2 5 12 5 14 0 19 -2 13 -5z m594 -19 c-3 -3 -12 -4 -19 -1 -8
3 -5 6 6 6 11 1 17 -2 13 -5z m-54 -11 c-7 -2 -19 -2 -25 0 -7 3 -2 5 12 5 14
0 19 -2 13 -5z m-103 -18 c-36 -8 -76 -13 -90 -13 -33 1 87 26 125 26 17 0 1
-6 -35 -13z m-287 -2 c-7 -2 -19 -2 -25 0 -7 3 -2 5 12 5 14 0 19 -2 13 -5z
m232 -48 c-27 -7 -63 -13 -80 -13 -20 0 -12 4 25 13 72 16 120 16 55 0z m2404
11 c-18 -18 -792 -117 -806 -103 -11 12 243 52 457 73 140 13 264 26 275 28
30 5 79 7 74 2z m-2526 -33 c-7 -2 -19 -2 -25 0 -7 3 -2 5 12 5 14 0 19 -2 13
-5z m-75 -10 c-10 -2 -26 -2 -35 0 -10 3 -2 5 17 5 19 0 27 -2 18 -5z m-81 -9
c-3 -3 -12 -4 -19 -1 -8 3 -5 6 6 6 11 1 17 -2 13 -5z m1832 -28 c-12 -12
-216 -49 -399 -72 -113 -14 -333 -50 -488 -80 -287 -55 -354 -64 -272 -38 205
66 615 142 937 173 224 22 228 22 222 17z m-192 -82 c-3 -3 -12 -4 -19 -1 -8
3 -5 6 6 6 11 1 17 -2 13 -5z m-437 -54 c-14 -4 -36 -8 -50 -8 -22 0 -22 1 5
8 17 4 39 8 50 8 16 0 15 -2 -5 -8z m-87 -17 c-7 -2 -19 -2 -25 0 -7 3 -2 5
12 5 14 0 19 -2 13 -5z"/>
<path d="M3683 8710 c-22 -9 -35 -27 -53 -75 -10 -26 -9 -27 17 -21 23 5 22 3
-10 -15 -27 -14 -38 -26 -34 -38 2 -9 -3 -23 -11 -31 -26 -24 0 -21 123 14 66
19 121 33 123 31 10 -9 -83 -57 -168 -86 -106 -36 -105 -35 -115 -66 -5 -18
-2 -23 10 -23 15 0 14 -3 -3 -17 -15 -14 -23 -39 -31 -102 -6 -46 -11 -101
-11 -122 l0 -37 88 22 c48 13 98 26 112 30 38 10 -88 -55 -145 -75 -37 -13
-51 -23 -53 -40 -3 -18 0 -20 15 -15 42 17 303 99 464 146 227 67 208 59 185
75 -10 8 -22 13 -25 10 -14 -8 -394 -125 -398 -121 -10 9 159 71 272 100 l126
31 -89 82 c-87 80 -91 82 -123 73 -19 -6 -61 -10 -94 -9 l-60 0 69 25 c38 13
71 26 74 29 2 2 -24 34 -58 70 -44 45 -72 65 -89 66 -17 1 -20 3 -8 6 9 2 17
8 17 12 0 14 -46 51 -66 52 -10 0 -13 3 -6 6 6 2 12 9 12 14 0 11 -28 11 -57
-1z m-36 -156 c-3 -3 -12 -4 -19 -1 -8 3 -5 6 6 6 11 1 17 -2 13 -5z m175 -84
c-121 -42 -129 -44 -116 -31 11 12 157 59 184 59 8 0 -22 -12 -68 -28z m-47
-87 c-41 -15 -187 -44 -193 -38 -2 2 21 14 50 28 39 19 70 25 118 25 l65 1
-40 -16z m-49 -52 c-6 -9 -86 -32 -108 -30 -7 1 12 9 42 19 65 21 73 23 66 11z"/>
<path d="M9530 8329 c-91 -29 -94 -39 -8 -23 106 20 118 23 118 34 0 15 -38
11 -110 -11z"/>
<path d="M3517 7144 c-4 -4 -7 -20 -7 -36 0 -25 4 -28 33 -29 l32 -1 -32 -9
c-42 -12 -44 -34 -3 -25 69 14 93 15 47 2 -70 -21 -79 -25 -73 -35 5 -8 50 1
201 41 l39 10 -74 29 c-46 18 -85 27 -100 24 -18 -4 -21 -3 -10 4 8 6 12 12
10 15 -10 9 -56 17 -63 10z"/>
</g>
</svg>
