<?xml version="1.0" standalone="no"?>
<!DOCTYPE svg PUBLIC "-//W3C//DTD SVG 20010904//EN"
 "http://www.w3.org/TR/2001/REC-SVG-20010904/DTD/svg10.dtd">
<svg version="1.0" xmlns="http://www.w3.org/2000/svg"
 width="1280.000000pt" height="422.000000pt" viewBox="0 0 1280.000000 422.000000"
 preserveAspectRatio="xMidYMid meet">
<metadata>
Created by potrace 1.15, written by Peter Selinger 2001-2017
</metadata>
<g transform="translate(0.000000,422.000000) scale(0.100000,-0.100000)"
fill="#ff5722" stroke="none">
<path d="M7881 4209 c-1045 -21 -1537 -46 -1772 -89 -177 -33 -262 -69 -394
-167 -268 -198 -363 -444 -416 -1063 -16 -198 -23 -1089 -10 -1380 23 -502 65
-738 173 -955 163 -328 387 -445 958 -499 462 -45 1393 -60 3110 -53 2309 11
2571 37 2868 291 262 224 344 517 393 1401 24 429 -13 1291 -68 1580 -35 186
-133 433 -213 533 -120 153 -374 288 -600 321 -484 69 -2539 110 -4029 80z
m-401 -889 l0 -200 -280 0 -280 0 0 -1165 0 -1165 -260 0 -260 0 0 1165 0
1165 -260 0 -260 0 0 200 0 200 800 0 800 0 0 -200z m2100 -225 c0 -234 2
-425 5 -425 2 0 35 20 72 44 261 168 477 193 636 72 56 -42 122 -142 147 -224
30 -94 39 -331 40 -967 l0 -521 -47 -82 c-85 -146 -159 -202 -298 -221 -166
-24 -349 33 -495 154 l-55 45 -3 -90 -3 -90 -234 0 -235 0 0 1365 0 1365 235
0 235 0 0 -425z m2095 -262 c116 -24 249 -95 326 -172 68 -68 101 -121 124
-200 42 -141 66 -397 58 -592 l-6 -116 -210 -6 c-116 -4 -318 -7 -449 -7
l-239 0 3 -252 c3 -286 5 -291 80 -348 41 -30 46 -32 118 -28 145 9 173 46
192 257 l12 131 247 0 247 0 -5 -87 c-8 -155 -31 -284 -60 -341 -16 -32 -57
-82 -103 -126 -149 -142 -283 -182 -575 -173 -244 8 -323 38 -465 173 -89 86
-139 164 -157 248 -7 33 -18 184 -25 334 -14 307 0 762 26 885 69 317 457 506
861 420z m-3795 -405 c0 -384 15 -999 28 -1208 l7 -105 58 -3 c68 -4 101 13
210 102 l67 56 0 775 0 775 245 0 245 0 0 -1015 0 -1015 -244 0 -243 0 -6 86
c-2 47 -7 88 -11 91 -3 3 -49 -26 -103 -65 -168 -120 -223 -137 -404 -130
-128 5 -189 25 -247 81 -41 40 -58 98 -72 247 -9 90 -20 748 -30 1693 l0 27
250 0 250 0 0 -392z"/>
<path d="M9915 2453 c-11 -3 -53 -19 -93 -35 l-74 -31 4 -596 c3 -526 5 -600
20 -633 32 -70 153 -114 248 -88 78 21 98 51 121 189 19 113 28 444 18 701
-11 292 -22 403 -45 437 -30 47 -126 74 -199 56z"/>
<path d="M11505 2500 c-58 -10 -98 -47 -114 -107 -6 -21 -11 -107 -11 -190 l0
-153 196 0 196 0 -4 168 c-4 187 -17 232 -73 263 -38 21 -125 30 -190 19z"/>
<path d="M55 3633 c-22 -2 -44 -8 -48 -12 -4 -4 45 -140 109 -302 125 -316
326 -838 430 -1115 l64 -171 0 -566 0 -567 243 0 244 0 6 332 c4 182 7 442 7
576 l0 245 141 356 c270 680 459 1177 459 1206 0 13 -31 15 -245 15 -222 0
-245 -2 -253 -17 -5 -10 -80 -236 -167 -503 -86 -267 -163 -496 -170 -509 -12
-24 -13 -23 -34 35 -45 120 -137 387 -236 689 l-102 310 -204 1 c-112 0 -222
-1 -244 -3z"/>
<path d="M2241 2920 c-247 -52 -416 -205 -456 -412 -50 -267 -56 -990 -9
-1188 54 -231 235 -402 474 -446 130 -25 320 -15 425 20 197 67 333 196 385
364 29 94 44 394 36 729 -7 308 -19 463 -42 543 -53 187 -195 321 -399 376
-70 19 -345 28 -414 14z m309 -349 c70 -50 75 -100 75 -733 0 -539 0 -547 -21
-575 -31 -42 -125 -85 -184 -85 -56 1 -74 9 -149 65 l-53 41 5 586 c3 391 8
597 16 621 15 49 59 88 112 99 63 13 169 3 199 -19z"/>
<path d="M3567 2308 c4 -659 17 -1162 33 -1258 6 -36 21 -85 33 -110 20 -38
34 -51 99 -84 69 -35 83 -39 155 -39 144 0 293 63 475 200 31 24 59 43 62 43
3 0 6 -52 6 -115 l0 -115 233 2 232 3 3 1028 2 1027 -235 0 -235 0 0 -788 0
-789 -77 -62 c-96 -78 -165 -114 -220 -115 -53 -1 -73 18 -85 81 -5 26 -11
414 -15 861 l-6 812 -232 0 -232 0 4 -582z"/>
</g>
</svg>
